<svg width="65" height="65" viewBox="0 0 65 65" fill="none" xmlns="http://www.w3.org/2000/svg">
<rect width="65" height="65" rx="16" fill="#F16718"/>
<path fill-rule="evenodd" clip-rule="evenodd" d="M34.9471 32.9306L40.9215 26.9313C41.2696 26.5825 41.4425 26.0949 41.395 25.6043C41.3463 25.1131 41.0797 24.6694 40.6719 24.3942L33.0748 19.2818C32.5677 18.9397 31.9085 18.9068 31.3698 19.1935C30.8305 19.4808 30.483 20.0421 30.483 20.652V28.5936L26.5331 24.6006C25.8903 23.9529 24.8543 23.9487 24.2067 24.5902C23.559 25.233 23.5542 26.2794 24.197 26.927L30.15 32.9294L24.197 38.9311C23.5542 39.5782 23.559 40.6245 24.2067 41.2685C24.8543 41.9107 25.891 41.907 26.5331 41.2582L30.483 37.2651V45.2062C30.483 45.8167 30.8305 46.3779 31.3698 46.6646C31.9085 46.9519 32.5677 46.9184 33.0748 46.5757L40.6713 41.4651C41.0803 41.1894 41.3463 40.745 41.3944 40.255C41.4419 39.7638 41.269 39.2775 40.9209 38.9275L34.9471 32.9306ZM33.8357 23.7569L37.1938 26.017L33.8357 29.3886V23.7569ZM33.8357 36.4732V42.1048L37.1938 39.8448L33.8357 36.4732Z" fill="white"/>
</svg>
