<svg width="65" height="65" viewBox="0 0 65 65" fill="none" xmlns="http://www.w3.org/2000/svg">
<rect width="65" height="65" rx="16" fill="#F16718"/>
<path fill-rule="evenodd" clip-rule="evenodd" d="M32 20.6093C31.448 20.6093 31 20.1613 31 19.6093V17C31 16.448 31.448 16 32 16C32.552 16 33 16.448 33 17V19.6093C33 20.1613 32.552 20.6093 32 20.6093ZM40.7613 24.2387C40.5053 24.2387 40.2493 24.1413 40.0547 23.9453C39.664 23.5547 39.664 22.9213 40.0547 22.5307L41.9 20.6853C42.2907 20.2947 42.924 20.2947 43.3147 20.6853C43.7053 21.076 43.7053 21.7093 43.3147 22.1L41.4693 23.9453C41.2733 24.14 41.0173 24.2387 40.7613 24.2387ZM44.3907 33H47C47.552 33 48 32.552 48 32C48 31.448 47.552 31 47 31H44.3907C43.8387 31 43.3907 31.448 43.3907 32C43.3907 32.552 43.8387 33 44.3907 33ZM42.6067 43.6067C42.3507 43.6067 42.0947 43.5093 41.9 43.3133L40.0547 41.468C39.664 41.0773 39.664 40.444 40.0547 40.0533C40.4453 39.6627 41.0787 39.6627 41.4693 40.0533L43.3147 41.8987C43.7053 42.2893 43.7053 42.9227 43.3147 43.3133C43.1187 43.5093 42.8627 43.6067 42.6067 43.6067ZM20.6867 43.3133C20.8813 43.5093 21.1373 43.6067 21.3933 43.6067C21.6493 43.6067 21.9053 43.5093 22.1013 43.3133L23.9467 41.468C24.3373 41.0773 24.3373 40.444 23.9467 40.0533C23.556 39.6627 22.9227 39.6627 22.532 40.0533L20.6867 41.8987C20.296 42.2893 20.296 42.9227 20.6867 43.3133ZM19.6093 33H17C16.448 33 16 32.552 16 32C16 31.448 16.448 31 17 31H19.6093C20.1613 31 20.6093 31.448 20.6093 32C20.6093 32.552 20.1613 33 19.6093 33ZM22.532 23.9453C22.7267 24.1413 22.9827 24.2387 23.2387 24.2387C23.4947 24.2387 23.7493 24.14 23.9467 23.9453C24.3373 23.5547 24.3373 22.9213 23.9467 22.5307L22.1013 20.6853C21.7107 20.2947 21.0773 20.2947 20.6867 20.6853C20.296 21.076 20.296 21.7093 20.6867 22.1L22.532 23.9453ZM36 44V45.6667C36 46.9467 34.9467 48 33.6667 48H30.3333C29.2133 48 28 47.1467 28 45.28V44H36ZM37.88 24.7467C35.6933 22.9733 32.8133 22.28 30 22.88C26.4667 23.6133 23.6 26.4933 22.8667 30.0267C22.12 33.6533 23.48 37.2533 26.3867 39.4533C27.1733 40.04 27.72 40.9467 27.9067 42V42.0133C27.9333 42 27.9733 42 28 42H36C36.0267 42 36.04 42 36.0667 42.0133V42C36.2533 40.9867 36.8533 40.0533 37.7733 39.3333C40.0267 37.5467 41.3333 34.88 41.3333 32C41.3333 29.1733 40.08 26.5333 37.88 24.7467ZM37 32.6667C36.4533 32.6667 36 32.2133 36 31.6667C36 29.64 34.36 28 32.3333 28C31.7867 28 31.3333 27.5467 31.3333 27C31.3333 26.4533 31.7867 26 32.3333 26C35.4533 26 38 28.5467 38 31.6667C38 32.2133 37.5467 32.6667 37 32.6667Z" fill="white"/>
</svg>
