<svg width="65" height="65" viewBox="0 0 65 65" fill="none" xmlns="http://www.w3.org/2000/svg">
<rect width="65" height="65" rx="16" fill="#F16718"/>
<path fill-rule="evenodd" clip-rule="evenodd" d="M45.3333 27.3334H45.6547C46.9413 27.3334 47.988 28.38 47.988 29.6667V37C47.988 38.2867 46.9413 39.3334 45.6547 39.3334H45.3333V39.6667C45.3333 41.6894 43.688 43.3334 41.6667 43.3334H19.6667C17.6453 43.3334 16 41.6894 16 39.6667V27C16 24.9774 17.6453 23.3334 19.6667 23.3334H41.6667C43.688 23.3334 45.3333 24.9774 45.3333 27V27.3334ZM24.3333 39.3334C24.8853 39.3334 25.3333 38.8854 25.3333 38.3334V28.3334C25.3333 27.7814 24.8853 27.3334 24.3333 27.3334H21C20.448 27.3334 20 27.7814 20 28.3334V38.3334C20 38.8854 20.448 39.3334 21 39.3334H24.3333ZM33.3333 38.3334C33.3333 38.8854 32.8853 39.3334 32.3333 39.3334H29C28.448 39.3334 28 38.8854 28 38.3334V28.3334C28 27.7814 28.448 27.3334 29 27.3334H32.3333C32.8853 27.3334 33.3333 27.7814 33.3333 28.3334V38.3334ZM40.3333 39.3334C40.8853 39.3334 41.3333 38.8854 41.3333 38.3334V28.3334C41.3333 27.7814 40.8853 27.3334 40.3333 27.3334H37C36.448 27.3334 36 27.7814 36 28.3334V38.3334C36 38.8854 36.448 39.3334 37 39.3334H40.3333Z" fill="white"/>
</svg>
